<?xml version="1.0" encoding="utf-8"?>
<!-- Generator: Adobe Illustrator 15.0.0, SVG Export Plug-In . SVG Version: 6.00 Build 0)  -->
<!DOCTYPE svg PUBLIC "-//W3C//DTD SVG 1.1//EN" "http://www.w3.org/Graphics/SVG/1.1/DTD/svg11.dtd">
<svg version="1.1" id="Vrstva_1" xmlns="http://www.w3.org/2000/svg" xmlns:xlink="http://www.w3.org/1999/xlink" x="0px" y="0px"
	 width="390.38px" height="96px" viewBox="0 0 390.38 96" enable-background="new 0 0 390.38 96" xml:space="preserve">
<path fill="#FFFFFF" d="M108.968,47.915c0,8.463-6.86,15.322-15.323,15.322c-8.462,0-15.323-6.859-15.323-15.322
	c0-8.464,6.861-15.323,15.323-15.323C102.108,32.592,108.968,39.451,108.968,47.915"/>
<polygon points="29.503,68.151 29.503,27.553 61.763,27.553 61.763,37.596 39.911,37.596 39.911,43.074 56.833,43.074 
	56.833,53.179 39.911,53.179 39.911,68.151 "/>
<path d="M139.902,44.9h10.348c2.192,0,4.201-1.339,4.201-3.652c0-2.435-1.887-3.713-4.201-3.713h-10.348V44.9z M129.616,68.151
	V27.553h21.608c7.367,0,13.635,5.417,13.635,13.695c0,5.601-3.652,10.592-7.973,12.114c0.973,1.644,7.913,13.451,8.764,14.789
	h-12.844c-0.729-1.217-6.694-11.807-7.607-13.391h-5.297v13.391H129.616z"/>
<polygon points="187.152,68.151 187.152,37.596 177.229,37.596 177.229,27.553 207.543,27.553 207.543,37.596 197.622,37.596 
	197.622,68.151 "/>
<path d="M222.798,27.553h10.409v25.87c0,2.678,2.191,5.355,5.539,5.355c3.043,0,5.539-2.313,5.539-5.355v-25.87h10.227v25.14
	c0,9.13-6.878,16.189-15.766,16.189c-9.009,0-15.948-6.877-15.948-16.189V27.553z"/>
<path d="M274.161,68.151v-41.39c1.646,1.461,20.21,18.139,22.218,19.844V27.553h10.166v41.392
	c-2.009-1.766-20.453-18.322-22.156-19.843v19.05H274.161z"/>
<path d="M339.923,42.648c-0.243,0.73-2.8,8.157-2.982,8.704h6.147C342.905,50.866,340.166,43.318,339.923,42.648 M331.098,68.151
	h-11.079c0.305-0.852,14.365-39.808,14.609-40.599h10.591c0.243,0.67,14.913,39.626,15.278,40.599h-11.2
	c-0.303-0.852-2.252-6.146-2.496-6.816h-13.33C333.288,61.884,331.28,67.604,331.098,68.151"/>
<path d="M115.327,47.669c0-11.856-9.612-21.468-21.469-21.468c-11.855,0-21.468,9.611-21.468,21.468
	c0,11.857,9.613,21.469,21.468,21.469C105.715,69.138,115.327,59.526,115.327,47.669 M105.117,47.772
	c0,6.16-4.994,11.154-11.154,11.154c-6.16,0-11.156-4.994-11.156-11.154s4.996-11.154,11.156-11.154
	C100.123,36.618,105.117,41.612,105.117,47.772"/>
</svg>
